<mxfile host="app.diagrams.net" modified="2021-09-23T14:03:48.097Z" agent="5.0 (Macintosh; Intel Mac OS X 10_15_7) AppleWebKit/537.36 (KHTML, like Gecko) Chrome/93.0.4577.82 Safari/537.36" etag="9-Mu3eKwUxpCItcHGpGz" version="14.9.2" type="github">
  <diagram id="ZyNNtjneIbbMOS0TVyDl" name="Page-1">
    <mxGraphModel dx="1186" dy="698" grid="1" gridSize="10" guides="1" tooltips="1" connect="1" arrows="1" fold="1" page="1" pageScale="1" pageWidth="850" pageHeight="1100" math="0" shadow="0">
      <root>
        <mxCell id="0" />
        <mxCell id="1" parent="0" />
        <mxCell id="96cSLyob2spndUOqhP3X-5" value="" style="edgeStyle=orthogonalEdgeStyle;rounded=0;orthogonalLoop=1;jettySize=auto;html=1;" edge="1" parent="1" source="96cSLyob2spndUOqhP3X-1" target="96cSLyob2spndUOqhP3X-4">
          <mxGeometry relative="1" as="geometry" />
        </mxCell>
        <mxCell id="96cSLyob2spndUOqhP3X-1" value="Actor A" style="shape=umlActor;verticalLabelPosition=bottom;verticalAlign=top;html=1;outlineConnect=0;" vertex="1" parent="1">
          <mxGeometry x="60" y="60" width="30" height="60" as="geometry" />
        </mxCell>
        <mxCell id="96cSLyob2spndUOqhP3X-6" value="" style="edgeStyle=orthogonalEdgeStyle;rounded=0;orthogonalLoop=1;jettySize=auto;html=1;" edge="1" parent="1" source="96cSLyob2spndUOqhP3X-2" target="96cSLyob2spndUOqhP3X-4">
          <mxGeometry relative="1" as="geometry" />
        </mxCell>
        <mxCell id="96cSLyob2spndUOqhP3X-2" value="Actor B" style="shape=umlActor;verticalLabelPosition=bottom;verticalAlign=top;html=1;outlineConnect=0;" vertex="1" parent="1">
          <mxGeometry x="330" y="60" width="30" height="60" as="geometry" />
        </mxCell>
        <mxCell id="96cSLyob2spndUOqhP3X-4" value="New Matrix Chat" style="rounded=0;whiteSpace=wrap;html=1;" vertex="1" parent="1">
          <mxGeometry x="150" y="60" width="120" height="60" as="geometry" />
        </mxCell>
        <mxCell id="96cSLyob2spndUOqhP3X-9" value="" style="edgeStyle=orthogonalEdgeStyle;rounded=0;orthogonalLoop=1;jettySize=auto;html=1;" edge="1" source="96cSLyob2spndUOqhP3X-10" target="96cSLyob2spndUOqhP3X-11" parent="1">
          <mxGeometry relative="1" as="geometry" />
        </mxCell>
        <mxCell id="96cSLyob2spndUOqhP3X-10" value="Actor A" style="shape=umlActor;verticalLabelPosition=bottom;verticalAlign=top;html=1;outlineConnect=0;" vertex="1" parent="1">
          <mxGeometry x="60" y="210" width="30" height="60" as="geometry" />
        </mxCell>
        <mxCell id="96cSLyob2spndUOqhP3X-11" value="New Matrix Chat" style="rounded=0;whiteSpace=wrap;html=1;" vertex="1" parent="1">
          <mxGeometry x="150" y="210" width="120" height="60" as="geometry" />
        </mxCell>
        <mxCell id="96cSLyob2spndUOqhP3X-12" value="Send Public Key A1 + UUID A1" style="text;html=1;strokeColor=none;fillColor=none;align=center;verticalAlign=middle;whiteSpace=wrap;rounded=0;" vertex="1" parent="1">
          <mxGeometry x="80" y="180" width="280" height="20" as="geometry" />
        </mxCell>
        <mxCell id="96cSLyob2spndUOqhP3X-13" value="" style="edgeStyle=orthogonalEdgeStyle;rounded=0;orthogonalLoop=1;jettySize=auto;html=1;" edge="1" source="96cSLyob2spndUOqhP3X-14" target="96cSLyob2spndUOqhP3X-15" parent="1">
          <mxGeometry relative="1" as="geometry" />
        </mxCell>
        <mxCell id="96cSLyob2spndUOqhP3X-14" value="Actor B" style="shape=umlActor;verticalLabelPosition=bottom;verticalAlign=top;html=1;outlineConnect=0;" vertex="1" parent="1">
          <mxGeometry x="330" y="340" width="30" height="60" as="geometry" />
        </mxCell>
        <mxCell id="96cSLyob2spndUOqhP3X-15" value="New Matrix Chat" style="rounded=0;whiteSpace=wrap;html=1;" vertex="1" parent="1">
          <mxGeometry x="150" y="340" width="120" height="60" as="geometry" />
        </mxCell>
        <mxCell id="96cSLyob2spndUOqhP3X-16" value="Send Public Key B1 + UUID B1" style="text;html=1;strokeColor=none;fillColor=none;align=center;verticalAlign=middle;whiteSpace=wrap;rounded=0;" vertex="1" parent="1">
          <mxGeometry x="80" y="310" width="280" height="20" as="geometry" />
        </mxCell>
        <mxCell id="96cSLyob2spndUOqhP3X-17" value="" style="edgeStyle=orthogonalEdgeStyle;rounded=0;orthogonalLoop=1;jettySize=auto;html=1;" edge="1" source="96cSLyob2spndUOqhP3X-18" target="96cSLyob2spndUOqhP3X-19" parent="1">
          <mxGeometry relative="1" as="geometry" />
        </mxCell>
        <mxCell id="96cSLyob2spndUOqhP3X-18" value="Actor B" style="shape=umlActor;verticalLabelPosition=bottom;verticalAlign=top;html=1;outlineConnect=0;fillColor=#f8cecc;strokeColor=#b85450;" vertex="1" parent="1">
          <mxGeometry x="330" y="700" width="30" height="60" as="geometry" />
        </mxCell>
        <mxCell id="96cSLyob2spndUOqhP3X-19" value="New Matrix Chat" style="rounded=0;whiteSpace=wrap;html=1;" vertex="1" parent="1">
          <mxGeometry x="150" y="700" width="120" height="60" as="geometry" />
        </mxCell>
        <mxCell id="96cSLyob2spndUOqhP3X-20" value="Send Public Key B2 + UUID B2" style="text;html=1;strokeColor=none;fillColor=none;align=center;verticalAlign=middle;whiteSpace=wrap;rounded=0;" vertex="1" parent="1">
          <mxGeometry x="80" y="670" width="280" height="20" as="geometry" />
        </mxCell>
        <mxCell id="96cSLyob2spndUOqhP3X-24" value="&lt;h1&gt;&lt;font style=&quot;font-size: 13px&quot;&gt;User B joins also with tablet.&lt;/font&gt;&lt;/h1&gt;" style="text;html=1;strokeColor=#b85450;fillColor=#f8cecc;spacing=5;spacingTop=-20;whiteSpace=wrap;overflow=hidden;rounded=0;" vertex="1" parent="1">
          <mxGeometry x="10" y="690" width="110" height="70" as="geometry" />
        </mxCell>
        <mxCell id="96cSLyob2spndUOqhP3X-25" value="" style="edgeStyle=orthogonalEdgeStyle;rounded=0;orthogonalLoop=1;jettySize=auto;html=1;" edge="1" source="96cSLyob2spndUOqhP3X-26" target="96cSLyob2spndUOqhP3X-27" parent="1">
          <mxGeometry relative="1" as="geometry" />
        </mxCell>
        <mxCell id="96cSLyob2spndUOqhP3X-26" value="Actor A" style="shape=umlActor;verticalLabelPosition=bottom;verticalAlign=top;html=1;outlineConnect=0;" vertex="1" parent="1">
          <mxGeometry x="60" y="460" width="30" height="60" as="geometry" />
        </mxCell>
        <mxCell id="96cSLyob2spndUOqhP3X-27" value="New Matrix Chat" style="rounded=0;whiteSpace=wrap;html=1;" vertex="1" parent="1">
          <mxGeometry x="150" y="460" width="120" height="60" as="geometry" />
        </mxCell>
        <mxCell id="96cSLyob2spndUOqhP3X-28" value="Sends message encryption with A1 together with UUID A1" style="text;html=1;strokeColor=none;fillColor=none;align=center;verticalAlign=middle;whiteSpace=wrap;rounded=0;" vertex="1" parent="1">
          <mxGeometry x="60" y="430" width="320" height="20" as="geometry" />
        </mxCell>
        <mxCell id="96cSLyob2spndUOqhP3X-29" value="" style="edgeStyle=orthogonalEdgeStyle;rounded=0;orthogonalLoop=1;jettySize=auto;html=1;exitX=1;exitY=0.5;exitDx=0;exitDy=0;" edge="1" source="96cSLyob2spndUOqhP3X-31" target="96cSLyob2spndUOqhP3X-30" parent="1">
          <mxGeometry relative="1" as="geometry">
            <mxPoint x="430" y="610" as="sourcePoint" />
            <mxPoint x="400" y="530" as="targetPoint" />
          </mxGeometry>
        </mxCell>
        <mxCell id="96cSLyob2spndUOqhP3X-30" value="Actor B" style="shape=umlActor;verticalLabelPosition=bottom;verticalAlign=top;html=1;outlineConnect=0;" vertex="1" parent="1">
          <mxGeometry x="330" y="580" width="30" height="60" as="geometry" />
        </mxCell>
        <mxCell id="96cSLyob2spndUOqhP3X-31" value="New Matrix Chat" style="rounded=0;whiteSpace=wrap;html=1;" vertex="1" parent="1">
          <mxGeometry x="150" y="580" width="120" height="60" as="geometry" />
        </mxCell>
        <mxCell id="96cSLyob2spndUOqhP3X-32" value="Decrypts message with public key A1" style="text;html=1;strokeColor=none;fillColor=none;align=center;verticalAlign=middle;whiteSpace=wrap;rounded=0;" vertex="1" parent="1">
          <mxGeometry x="80" y="550" width="280" height="20" as="geometry" />
        </mxCell>
        <mxCell id="96cSLyob2spndUOqhP3X-33" value="" style="edgeStyle=orthogonalEdgeStyle;rounded=0;orthogonalLoop=1;jettySize=auto;html=1;exitX=1;exitY=0.5;exitDx=0;exitDy=0;" edge="1" source="96cSLyob2spndUOqhP3X-35" target="96cSLyob2spndUOqhP3X-34" parent="1">
          <mxGeometry relative="1" as="geometry">
            <mxPoint x="430" y="860" as="sourcePoint" />
            <mxPoint x="400" y="780" as="targetPoint" />
          </mxGeometry>
        </mxCell>
        <mxCell id="96cSLyob2spndUOqhP3X-34" value="Actor B" style="shape=umlActor;verticalLabelPosition=bottom;verticalAlign=top;html=1;outlineConnect=0;fillColor=#f8cecc;strokeColor=#b85450;" vertex="1" parent="1">
          <mxGeometry x="330" y="830" width="30" height="60" as="geometry" />
        </mxCell>
        <mxCell id="96cSLyob2spndUOqhP3X-35" value="New Matrix Chat" style="rounded=0;whiteSpace=wrap;html=1;" vertex="1" parent="1">
          <mxGeometry x="150" y="830" width="120" height="60" as="geometry" />
        </mxCell>
        <mxCell id="96cSLyob2spndUOqhP3X-36" value="Decrypts &#39;old&#39; message with public key A1" style="text;html=1;strokeColor=none;fillColor=none;align=center;verticalAlign=middle;whiteSpace=wrap;rounded=0;" vertex="1" parent="1">
          <mxGeometry x="80" y="800" width="280" height="20" as="geometry" />
        </mxCell>
        <mxCell id="96cSLyob2spndUOqhP3X-37" value="Actor A DB" style="swimlane;fontStyle=0;childLayout=stackLayout;horizontal=1;startSize=26;horizontalStack=0;resizeParent=1;resizeParentMax=0;resizeLast=0;collapsible=1;marginBottom=0;" vertex="1" parent="1">
          <mxGeometry x="440" y="210" width="140" height="52" as="geometry" />
        </mxCell>
        <mxCell id="96cSLyob2spndUOqhP3X-38" value="A - UUID A1 - PK A1" style="text;strokeColor=none;fillColor=none;align=left;verticalAlign=top;spacingLeft=4;spacingRight=4;overflow=hidden;rotatable=0;points=[[0,0.5],[1,0.5]];portConstraint=eastwest;" vertex="1" parent="96cSLyob2spndUOqhP3X-37">
          <mxGeometry y="26" width="140" height="26" as="geometry" />
        </mxCell>
        <mxCell id="96cSLyob2spndUOqhP3X-41" value="Actor A DB" style="swimlane;fontStyle=0;childLayout=stackLayout;horizontal=1;startSize=26;horizontalStack=0;resizeParent=1;resizeParentMax=0;resizeLast=0;collapsible=1;marginBottom=0;" vertex="1" parent="1">
          <mxGeometry x="440" y="344" width="140" height="52" as="geometry" />
        </mxCell>
        <mxCell id="96cSLyob2spndUOqhP3X-42" value="A - UUID A1 - PK A1" style="text;strokeColor=none;fillColor=none;align=left;verticalAlign=top;spacingLeft=4;spacingRight=4;overflow=hidden;rotatable=0;points=[[0,0.5],[1,0.5]];portConstraint=eastwest;" vertex="1" parent="96cSLyob2spndUOqhP3X-41">
          <mxGeometry y="26" width="140" height="26" as="geometry" />
        </mxCell>
        <mxCell id="96cSLyob2spndUOqhP3X-43" value="Actor A DB" style="swimlane;fontStyle=0;childLayout=stackLayout;horizontal=1;startSize=26;horizontalStack=0;resizeParent=1;resizeParentMax=0;resizeLast=0;collapsible=1;marginBottom=0;" vertex="1" parent="1">
          <mxGeometry x="440" y="673" width="140" height="104" as="geometry" />
        </mxCell>
        <mxCell id="96cSLyob2spndUOqhP3X-44" value="A - UUID A1 - PK A1" style="text;strokeColor=none;fillColor=none;align=left;verticalAlign=top;spacingLeft=4;spacingRight=4;overflow=hidden;rotatable=0;points=[[0,0.5],[1,0.5]];portConstraint=eastwest;" vertex="1" parent="96cSLyob2spndUOqhP3X-43">
          <mxGeometry y="26" width="140" height="26" as="geometry" />
        </mxCell>
        <mxCell id="96cSLyob2spndUOqhP3X-45" value="B - UUID B1 - PK B1" style="text;strokeColor=none;fillColor=none;align=left;verticalAlign=top;spacingLeft=4;spacingRight=4;overflow=hidden;rotatable=0;points=[[0,0.5],[1,0.5]];portConstraint=eastwest;" vertex="1" parent="96cSLyob2spndUOqhP3X-43">
          <mxGeometry y="52" width="140" height="26" as="geometry" />
        </mxCell>
        <mxCell id="96cSLyob2spndUOqhP3X-46" value="B - UUID B2 - PK B2" style="text;strokeColor=none;fillColor=none;align=left;verticalAlign=top;spacingLeft=4;spacingRight=4;overflow=hidden;rotatable=0;points=[[0,0.5],[1,0.5]];portConstraint=eastwest;" vertex="1" parent="96cSLyob2spndUOqhP3X-43">
          <mxGeometry y="78" width="140" height="26" as="geometry" />
        </mxCell>
        <mxCell id="96cSLyob2spndUOqhP3X-47" value="Actor A DB" style="swimlane;fontStyle=0;childLayout=stackLayout;horizontal=1;startSize=26;horizontalStack=0;resizeParent=1;resizeParentMax=0;resizeLast=0;collapsible=1;marginBottom=0;" vertex="1" parent="1">
          <mxGeometry x="440" y="800" width="140" height="104" as="geometry" />
        </mxCell>
        <mxCell id="96cSLyob2spndUOqhP3X-48" value="A - UUID A1 - PK A1" style="text;strokeColor=none;fillColor=none;align=left;verticalAlign=top;spacingLeft=4;spacingRight=4;overflow=hidden;rotatable=0;points=[[0,0.5],[1,0.5]];portConstraint=eastwest;" vertex="1" parent="96cSLyob2spndUOqhP3X-47">
          <mxGeometry y="26" width="140" height="26" as="geometry" />
        </mxCell>
        <mxCell id="96cSLyob2spndUOqhP3X-49" value="B - UUID B1 - PK B1" style="text;strokeColor=none;fillColor=none;align=left;verticalAlign=top;spacingLeft=4;spacingRight=4;overflow=hidden;rotatable=0;points=[[0,0.5],[1,0.5]];portConstraint=eastwest;" vertex="1" parent="96cSLyob2spndUOqhP3X-47">
          <mxGeometry y="52" width="140" height="26" as="geometry" />
        </mxCell>
        <mxCell id="96cSLyob2spndUOqhP3X-50" value="B - UUID B2 - PK B2" style="text;strokeColor=none;fillColor=none;align=left;verticalAlign=top;spacingLeft=4;spacingRight=4;overflow=hidden;rotatable=0;points=[[0,0.5],[1,0.5]];portConstraint=eastwest;" vertex="1" parent="96cSLyob2spndUOqhP3X-47">
          <mxGeometry y="78" width="140" height="26" as="geometry" />
        </mxCell>
        <mxCell id="96cSLyob2spndUOqhP3X-51" value="Actor A DB" style="swimlane;fontStyle=0;childLayout=stackLayout;horizontal=1;startSize=26;horizontalStack=0;resizeParent=1;resizeParentMax=0;resizeLast=0;collapsible=1;marginBottom=0;" vertex="1" parent="1">
          <mxGeometry x="440" y="570" width="140" height="78" as="geometry" />
        </mxCell>
        <mxCell id="96cSLyob2spndUOqhP3X-52" value="A - UUID A1 - PK A1" style="text;strokeColor=none;fillColor=none;align=left;verticalAlign=top;spacingLeft=4;spacingRight=4;overflow=hidden;rotatable=0;points=[[0,0.5],[1,0.5]];portConstraint=eastwest;" vertex="1" parent="96cSLyob2spndUOqhP3X-51">
          <mxGeometry y="26" width="140" height="26" as="geometry" />
        </mxCell>
        <mxCell id="96cSLyob2spndUOqhP3X-53" value="B - UUID B1 - PK B1" style="text;strokeColor=none;fillColor=none;align=left;verticalAlign=top;spacingLeft=4;spacingRight=4;overflow=hidden;rotatable=0;points=[[0,0.5],[1,0.5]];portConstraint=eastwest;" vertex="1" parent="96cSLyob2spndUOqhP3X-51">
          <mxGeometry y="52" width="140" height="26" as="geometry" />
        </mxCell>
        <mxCell id="96cSLyob2spndUOqhP3X-55" value="Actor A DB" style="swimlane;fontStyle=0;childLayout=stackLayout;horizontal=1;startSize=26;horizontalStack=0;resizeParent=1;resizeParentMax=0;resizeLast=0;collapsible=1;marginBottom=0;" vertex="1" parent="1">
          <mxGeometry x="440" y="450" width="140" height="78" as="geometry" />
        </mxCell>
        <mxCell id="96cSLyob2spndUOqhP3X-56" value="A - UUID A1 - PK A1" style="text;strokeColor=none;fillColor=none;align=left;verticalAlign=top;spacingLeft=4;spacingRight=4;overflow=hidden;rotatable=0;points=[[0,0.5],[1,0.5]];portConstraint=eastwest;" vertex="1" parent="96cSLyob2spndUOqhP3X-55">
          <mxGeometry y="26" width="140" height="26" as="geometry" />
        </mxCell>
        <mxCell id="96cSLyob2spndUOqhP3X-57" value="B - UUID B1 - PK B1" style="text;strokeColor=none;fillColor=none;align=left;verticalAlign=top;spacingLeft=4;spacingRight=4;overflow=hidden;rotatable=0;points=[[0,0.5],[1,0.5]];portConstraint=eastwest;" vertex="1" parent="96cSLyob2spndUOqhP3X-55">
          <mxGeometry y="52" width="140" height="26" as="geometry" />
        </mxCell>
      </root>
    </mxGraphModel>
  </diagram>
</mxfile>
